<svg width="45" height="45" xmlns="http://www.w3.org/2000/svg">
    <path d="
        M 22.5 30
        L 21 30
        A 3 3 0 0 0 18 33
        L 18 39
        A 3 3 0 0 1 15 42
        L 12 42
        A 3 3 0 0 1 9 39
        L 9 28.5
        A 3 3 0 0 0 6 25.5
        A 3 3 0 0 1 5.121320343559643 20.378679656440357
        L 20.378679656440357 5.121320343559643
        A 3 3 0 0 1 24.621320343559643 5.121320343559643
        L 39.878679656440357 20.378679656440357
        A 3 3 0 0 1 39 25.5
        A 3 3 0 0 0 36 28.5
        L 36 39
        A 3 3 0 0 1 33 42
        L 30 42
        A 3 3 0 0 1 27 39
        L 27 33
        A 3 3 0 0 0 24 30
        L 22.5 30
        " stroke="#aaa" fill="#272727"/>
</svg>